<svg width="123" height="36" viewBox="0 0 123 36" fill="none" xmlns="http://www.w3.org/2000/svg">
<path d="M5.586 6.566H0.462V0.979997H18.228V6.566H13.146V35H5.586V6.566ZM32.7311 35.504C30.1831 35.504 28.1671 35.098 26.6831 34.286C25.1991 33.446 24.1491 32.228 23.5331 30.632C22.9451 29.008 22.6511 26.95 22.6511 24.458V0.979997H30.0851V25.592C30.0851 26.964 30.2531 28.056 30.5891 28.868C30.9531 29.68 31.6671 30.086 32.7311 30.086C33.7951 30.086 34.4951 29.68 34.8311 28.868C35.1671 28.056 35.3351 26.964 35.3351 25.592V0.979997H42.8111V24.458C42.8111 26.95 42.5031 29.008 41.8871 30.632C41.2711 32.228 40.2211 33.446 38.7371 34.286C37.2811 35.098 35.2791 35.504 32.7311 35.504ZM49.2745 0.979997H58.6405C62.3645 0.979997 65.1785 1.638 67.0825 2.954C68.9865 4.27 69.9385 6.608 69.9385 9.968C69.9385 12.236 69.6445 14.042 69.0565 15.386C68.4685 16.73 67.3765 17.78 65.7805 18.536L70.4425 35H62.6725L58.9345 19.754H56.7925V35H49.2745V0.979997ZM58.8925 15.428C60.4045 15.428 61.4545 15.036 62.0425 14.252C62.6585 13.44 62.9665 12.236 62.9665 10.64C62.9665 9.1 62.6865 7.952 62.1265 7.196C61.5665 6.412 60.6005 6.02 59.2285 6.02H56.7925V15.428H58.8925Z" fill="white"/>
<path d="M76.1381 0.979997H85.0001C87.2121 0.979997 89.0881 1.218 90.6281 1.694C92.1961 2.142 93.4561 3.024 94.4081 4.34C95.3601 5.656 95.8361 7.504 95.8361 9.884C95.8361 11.9 95.4021 13.468 94.5341 14.588C93.6661 15.708 92.4341 16.422 90.8381 16.73C92.7981 16.982 94.2961 17.808 95.3321 19.208C96.3681 20.608 96.8861 22.512 96.8861 24.92C96.8861 31.64 93.4561 35 86.5961 35H76.1381V0.979997ZM85.1261 14.588C86.7221 14.588 87.8001 14.224 88.3601 13.496C88.9481 12.768 89.2421 11.634 89.2421 10.094C89.2421 8.75 88.8781 7.742 88.1501 7.07C87.4221 6.37 86.3581 6.02 84.9581 6.02H83.6561V14.588H85.1261ZM85.2521 29.75C86.8481 29.75 87.9681 29.358 88.6121 28.574C89.2841 27.762 89.6201 26.502 89.6201 24.794C89.6201 22.862 89.2841 21.504 88.6121 20.72C87.9681 19.936 86.8341 19.544 85.2101 19.544H83.6561V29.75H85.2521ZM112.254 35.504C108.586 35.504 105.968 34.566 104.4 32.69C102.832 30.786 102.048 27.986 102.048 24.29V11.648C102.048 7.952 102.832 5.18 104.4 3.332C105.968 1.456 108.586 0.517998 112.254 0.517998C115.95 0.517998 118.582 1.456 120.15 3.332C121.746 5.208 122.544 7.98 122.544 11.648V24.29C122.544 27.986 121.746 30.786 120.15 32.69C118.582 34.566 115.95 35.504 112.254 35.504ZM112.254 30.17C113.318 30.17 114.018 29.82 114.354 29.12C114.69 28.392 114.858 27.412 114.858 26.18V9.8C114.858 8.54 114.69 7.56 114.354 6.86C114.018 6.16 113.318 5.81 112.254 5.81C111.246 5.81 110.574 6.174 110.238 6.902C109.902 7.602 109.734 8.568 109.734 9.8V26.18C109.734 27.412 109.888 28.392 110.196 29.12C110.504 29.82 111.19 30.17 112.254 30.17Z" fill="#F7452D"/>
</svg>
